<svg version="1.1" xmlns="http://www.w3.org/2000/svg" viewBox="0 0 2048 2048" width="100%" height="100%">
<path transform="translate(0,0)" fill="rgb(0,0,0)" d="M 682.969 16.5 C 831.558 15.8766 980.149 16.1203 1128.74 17.2311 C 1152.79 17.4895 1176.84 17.5469 1200.89 17.4032 C 1228.9 17.2671 1266.04 13.6069 1292.56 22.376 C 1304.46 26.3109 1342.02 65.8563 1353.29 76.7365 C 1377.99 100.593 1401.85 125.469 1426.14 149.748 L 1601.31 324.74 L 1688.7 412.092 C 1701.31 424.724 1717.09 437.244 1727.48 451.697 C 1737.02 464.985 1739.59 478.956 1739.8 495.02 C 1741.26 602.493 1739.92 710.865 1739.92 818.432 L 1739.94 1450.31 L 1739.86 1746.25 L 1739.85 1832.69 C 1739.84 1853.42 1740.77 1874.86 1737.75 1895.42 C 1732.87 1928.61 1714.93 1959.59 1691.56 1983.29 C 1673.59 2001.51 1648.1 2017.09 1623.23 2023.51 C 1591.16 2031.78 1542.01 2028.48 1507.7 2028.52 L 1360.5 2028.86 L 702.554 2028.67 L 534.292 2028.49 C 503.297 2028.57 466.656 2031.5 436.286 2026.54 C 405.395 2021.24 376.862 2006.63 354.516 1984.66 C 331.426 1961.81 314.976 1933.52 310.154 1901.24 C 306.077 1873.94 306.981 1846.6 306.859 1819.1 L 306.034 1736.88 L 305.961 1439.5 L 305.948 347.5 C 305.833 310.332 305.964 273.163 306.341 235.997 C 306.656 201.748 303.698 160.559 313.43 127.519 C 320.759 102.639 335.794 79.8049 353.986 61.5038 C 374.635 40.7305 403.247 27.455 431.616 21.2654 C 465.212 13.9356 502.176 17.0212 536.421 16.9193 L 682.969 16.5 z"/>
<path transform="translate(0,0)" fill="rgb(255,255,255)" d="M 462.919 137.198 C 547.056 135.344 631.567 137.097 715.74 137.052 L 1205.89 136.969 C 1206.74 198.511 1206.07 260.173 1205.98 321.726 C 1205.93 351.872 1202.97 396.446 1209.3 424.734 C 1215.49 452.781 1229.52 478.493 1249.76 498.873 C 1269.77 519.425 1295.15 533.94 1323.01 540.763 C 1358.38 549.633 1411.15 546.062 1448.66 546.009 L 1617.7 546.049 C 1616.15 566.082 1617.88 587.588 1617.99 607.737 L 1618.12 726.174 L 1618.36 1498.92 L 1618.64 1758.46 C 1618.56 1792.89 1619.71 1827.64 1618.53 1862.04 C 1618.28 1869.33 1617.72 1876.57 1614.63 1883.29 C 1608.87 1895.85 1597.79 1904.69 1585.06 1909.45 C 1565.7 1913.88 1525.74 1911.47 1504.01 1911.68 L 1269.6 1911.93 L 751.387 1911.84 C 662.219 1911.85 572.752 1913.52 483.617 1911.84 C 472.596 1911.63 461.497 1911.39 451.57 1905.94 C 442.212 1900.8 433.712 1890.54 431.074 1880.11 C 427.793 1867.14 429.931 1801.74 429.938 1783.21 L 429.921 1531.25 L 429.749 437.671 L 429.388 257.869 L 429.338 204.794 C 429.33 193.621 428.795 182.102 429.95 170.986 C 430.563 165.082 431.903 160.303 435.179 155.276 C 441.556 145.492 451.644 139.474 462.919 137.198 z"/>
<path transform="translate(0,0)" fill="rgb(0,0,0)" d="M 648.245 301.418 C 670.362 300.601 692.686 301.192 714.824 301.191 L 835.963 301.106 L 903.84 301.049 C 918.716 301.037 934.263 300.117 948.969 302.386 C 960.368 304.144 968.682 308.155 977.342 315.663 C 990.059 326.689 998.001 342.007 998.944 358.894 C 999.827 374.72 995.228 389.121 984.584 400.958 C 977.022 409.367 966.701 417.116 955.658 420.107 C 935.133 425.666 906.302 422.61 884.82 422.576 L 777.483 422.468 C 755.382 422.398 732.98 421.573 710.917 422.853 L 710.974 562.56 C 731.515 563.342 752.241 562.893 772.803 562.957 L 893.126 563.034 C 920.543 562.76 951.901 558.785 974.643 577.478 C 987.474 588.025 996.933 603.795 998.295 620.516 C 999.652 637.176 993.532 653.762 982.709 666.334 C 971.739 679.077 957.538 685.788 940.753 687.013 C 922.754 688.327 903.967 687.003 885.854 687.06 L 761.902 687.198 L 686.78 687.227 C 671.745 687.3 655.61 688.491 640.724 686.495 C 629.341 684.968 620.09 681.275 611.391 673.713 C 597.896 661.982 590.873 646.616 589.757 628.973 C 588.601 610.687 589.685 591.942 589.802 573.614 L 589.887 479.454 L 589.863 398.74 C 589.85 381.408 588.36 363.094 591.531 346.001 C 593.237 336.802 599.466 326.95 605.728 320.047 C 617.244 307.353 631.586 302.499 648.245 301.418 z"/>
<path transform="translate(0,0)" fill="rgb(0,0,0)" d="M 641.707 1180.37 C 654.333 1178.94 668.099 1179.82 680.836 1179.83 L 748.935 1179.83 L 982.935 1179.86 L 1262.6 1179.98 L 1352.45 1179.81 C 1369.37 1179.78 1386.72 1179.01 1403.58 1180.23 C 1415.02 1181.06 1425.95 1184.66 1435.25 1191.49 C 1449.12 1201.86 1458.22 1217.39 1460.48 1234.56 C 1462.5 1250.44 1456.7 1267.75 1446.66 1280.13 C 1436.2 1293.02 1422.51 1299.78 1406.25 1301.59 C 1397.63 1302.91 1387.53 1302.04 1378.75 1302.01 L 1323.33 1301.85 L 1117.56 1301.82 L 799.273 1301.85 L 697.933 1301.87 C 680.277 1301.87 662.002 1302.78 644.424 1301.47 C 632.578 1300.59 620.876 1296.57 611.313 1289.47 C 598.007 1279.61 589.315 1263.83 587.183 1247.47 C 585.023 1230.9 590.877 1215.07 600.994 1202.13 C 611.576 1188.59 624.891 1182.3 641.707 1180.37 z"/>
<path transform="translate(0,0)" fill="rgb(0,0,0)" d="M 643.734 1444.42 C 683.859 1442.59 724.817 1444.83 765.06 1444.8 L 1049.15 1444.92 L 1298.49 1444.85 L 1365.42 1444.82 C 1378.15 1444.8 1391.09 1444.29 1403.77 1445.17 C 1414.73 1445.94 1423.62 1448.7 1432.83 1454.76 C 1446.93 1463.97 1456.76 1478.45 1460.11 1494.95 C 1463.09 1510.28 1459.26 1526.65 1450.49 1539.48 C 1440.09 1554.7 1425.46 1562.69 1407.58 1565.96 C 1353.39 1567.14 1298.93 1565.98 1244.7 1565.97 L 918.383 1565.97 L 733.205 1566.01 L 675.678 1566.02 C 663.983 1566.02 651.985 1566.53 640.345 1565.42 C 627.313 1564.18 617.03 1559.95 606.988 1551.43 C 594.595 1541.01 586.933 1526.02 585.738 1509.87 C 584.511 1493.63 589.352 1476.7 600.247 1464.42 C 611.752 1451.46 626.761 1445.64 643.734 1444.42 z"/>
<path transform="translate(0,0)" fill="rgb(0,0,0)" d="M 934.291 916.512 C 1042.63 915.177 1151.16 916.162 1259.52 916.262 L 1351.75 916.531 C 1369.75 916.529 1389.68 914.969 1407.42 917.769 C 1420.3 919.871 1432.23 925.851 1441.61 934.911 C 1453.33 946.172 1459.16 960.904 1459.21 977.102 C 1459.26 992.903 1453.42 1007.62 1442.16 1018.81 C 1432.84 1028.07 1421.5 1032.87 1408.65 1035.08 C 1385.51 1039.06 1341.08 1036.83 1316.31 1036.9 L 1109.5 1036.93 L 791.042 1036.89 L 694.716 1036.82 C 676.331 1036.77 656.745 1037.88 638.519 1035.42 C 626.158 1033.76 615.542 1029.65 606.195 1021.22 C 593.803 1010.01 586.639 994.14 586.421 977.429 C 586.093 961.517 593.218 945.568 604.185 934.216 C 612.634 925.471 623.059 920.393 634.925 918.283 C 647.854 915.985 661.382 916.715 674.464 916.741 L 729.237 916.829 L 934.291 916.512 z"/>
<path transform="translate(0,0)" fill="rgb(255,255,255)" d="M 1323.9 214.324 C 1332.58 219.448 1527.24 413.75 1536.05 426.691 C 1535.09 426.759 1534.13 426.815 1533.17 426.86 C 1496.16 428.268 1458.61 426.866 1421.54 426.899 C 1402.58 426.917 1373.99 429.35 1356.23 426.246 C 1348.31 424.86 1341.93 421.404 1336.14 415.823 C 1331.2 411.062 1327.26 405.327 1325.74 398.57 C 1321.61 380.123 1323.93 352.994 1324.03 333.72 C 1324.55 293.923 1324.51 254.12 1323.9 214.324 z"/>
</svg>