<svg id="eqxSuWmpFMe1" xmlns="http://www.w3.org/2000/svg" xmlns:xlink="http://www.w3.org/1999/xlink" viewBox="0 0 47 47" shape-rendering="geometricPrecision" text-rendering="geometricPrecision" project-id="a51c393b7b464194950a4d4a9a848781" export-id="043488ec9eb34cadbfc196fbca6c265f" cached="false"><g transform="translate(-8.5-8.5)"><path d="M44.62,22.1494c-.263517-.003537-.524281-.054132-.77-.1494-.118443-.050083-.232221-.110552-.34-.1807-.110545-.073972-.214288-.157635-.31-.25-.372516-.378664-.580889-.888819-.58-1.42-.001738-.131107.011684-.261975.04-.39.021058-.127364.057769-.251638.1093-.37.049824-.121753.110292-.238874.1807-.35.07501-.106652.158623-.206987.25-.3.095764-.092306.199501-.175966.31-.25.107782-.070115.221559-.130551.34-.1806.123197-.050256.250284-.090389.38-.12.654354-.127169,1.329099.07949,1.8.5513.093871.090726.177688.191307.25.3.07282.111159.136176.228237.1894.35.046872.120067.083666.243828.11.37.022988.128828.036358.259188.04.39.001719.533302-.210864,1.044941-.59,1.42-.090663.094255-.191553.178106-.3008.25-.110704.070094-.227352.130326-.3486.18-.118372.051525-.242641.088269-.37.1094-.128034.028255-.258896.041677-.39.04Z" fill="#d1d5db"/><path d="M32,42.9355c-6.03951,0-10.9355-4.89599-10.9355-10.9355s4.89599-10.9355,10.9355-10.9355s10.9355,4.89599,10.9355,10.9355C42.928996,38.036814,38.036814,42.928996,32,42.9355Zm0-18.871c-4.382656,0-7.9355,3.552844-7.9355,7.9355s3.552844,7.9355,7.9355,7.9355s7.9355-3.552844,7.9355-7.9355c-.004685-4.380714-3.554786-7.930815-7.9355-7.9355Z" fill="#d1d5db"/><path d="M27.5645,33.5c-.828427,0-1.5-.671573-1.5-1.5.002817-2.519735,1.593917-4.763953,3.9707-5.6006.508343-.188822,1.079019-.088571,1.492571.2622s.605582.897439.502242,1.429779-.485957.967457-1.000713,1.138021c-1.175727.41406-1.962919,1.524094-1.9648,2.7706c0,.828427-.671573,1.5-1.5,1.5Z" fill="#d1d5db"/><path d="M39,55.5h-14C15.891688,55.48942,8.51058,48.108312,8.5,39v-14C8.51058,15.891688,15.891688,8.51058,25,8.5h14c9.108312.01058,16.48942,7.391688,16.5,16.5v14c-.01058,9.108312-7.391688,16.48942-16.5,16.5Zm-14-44c-7.452463.008157-13.491843,6.047537-13.5,13.5v14c.008157,7.452463,6.047537,13.491843,13.5,13.5h14c7.452463-.008157,13.491843-6.047537,13.5-13.5v-14c-.008157-7.452463-6.047537-13.491843-13.5-13.5h-14Z" fill="#d1d5db"/></g></svg>
