<svg version="1.1" xmlns="http://www.w3.org/2000/svg"  viewBox="0 0 2048 2048" width="100%" height="100%" preserveAspectRatio="none">
<defs>
	<linearGradient id="Gradient1" gradientUnits="userSpaceOnUse" x1="1098.83" y1="995.081" x2="1106.12" y2="996.226">
		<stop class="stop0" offset="0" stop-opacity="0.168627" stop-color="rgb(81,82,81)"/>
		<stop class="stop1" offset="1" stop-opacity="0.235294" stop-color="rgb(84,85,84)"/>
	</linearGradient>
	<linearGradient id="Gradient2" gradientUnits="userSpaceOnUse" x1="1115.31" y1="1004.13" x2="1125.08" y2="996.362">
		<stop class="stop0" offset="0" stop-opacity="0.529412" stop-color="rgb(139,138,140)"/>
		<stop class="stop1" offset="1" stop-opacity="0.635294" stop-color="rgb(157,155,156)"/>
	</linearGradient>
	<linearGradient id="Gradient3" gradientUnits="userSpaceOnUse" x1="1102.55" y1="983.232" x2="1112.73" y2="984.988">
		<stop class="stop0" offset="0" stop-opacity="0.192157" stop-color="rgb(80,81,80)"/>
		<stop class="stop1" offset="1" stop-opacity="0.278431" stop-color="rgb(90,90,89)"/>
	</linearGradient>
	<linearGradient id="Gradient4" gradientUnits="userSpaceOnUse" x1="1122.84" y1="987.756" x2="1133.74" y2="985.337">
		<stop class="stop0" offset="0" stop-opacity="0.647059" stop-color="rgb(154,153,154)"/>
		<stop class="stop1" offset="1" stop-opacity="0.737255" stop-color="rgb(174,173,174)"/>
	</linearGradient>
	<linearGradient id="Gradient5" gradientUnits="userSpaceOnUse" x1="1094.03" y1="985.856" x2="1102.55" y2="987.435">
		<stop class="stop0" offset="0" stop-opacity="0.0980392" stop-color="rgb(78,79,78)"/>
		<stop class="stop1" offset="1" stop-opacity="0.176471" stop-color="rgb(83,84,83)"/>
	</linearGradient>
</defs>
<path transform="translate(0,0)" fill="rgb(0,0,0)" d="M 0 234.092 C 0.24266 233.591 0.49772 233.096 0.727981 232.589 C 4.98139 223.228 4.00384 208.116 5.54548 197.66 C 6.42478 191.696 8.1296 185.69 9.7899 179.906 C 29.8078 110.172 83.9423 49.999 150.907 22.3119 C 210.599 -2.9887 277.935 -3.34048 337.887 21.3351 C 354.553 28.3506 371.338 36.7365 385.913 47.5224 C 400.899 58.6125 413.687 72.9499 426.772 86.1679 C 446.012 105.64 465.357 125.008 484.806 144.271 C 495.952 155.491 506.759 167.633 518.636 178.056 C 541.661 178.8 564.311 176.005 587.205 174.047 C 607.088 172.346 627.062 171.326 646.968 169.783 L 891.813 151.041 C 916.901 149.171 978.994 140.258 1001.86 147.401 C 1010.32 150.045 1019.25 158.387 1025.53 164.422 C 1051.04 188.913 1075.38 214.695 1100.47 239.624 C 1164.38 301.905 1227.48 365.015 1289.75 428.938 L 1625.02 765.702 L 1906.36 1047.43 C 1928.22 1069.4 1949.95 1091.61 1972.05 1113.33 C 1989.26 1130.24 2007.08 1146.73 2023.6 1164.31 C 2036.22 1177.75 2044.31 1191.88 2043.75 1210.8 C 2043.36 1223.98 2039.47 1237.47 2030.9 1247.68 C 2019.43 1261.37 2005.42 1273.73 1992.67 1286.25 L 1922.43 1355.41 L 1708.09 1570.54 L 1401.02 1878.25 C 1362.58 1917.41 1323.67 1956.11 1284.29 1994.33 C 1272.52 2005.91 1261.6 2018.52 1249.56 2029.79 C 1237.44 2041.14 1222 2046.63 1205.49 2045.95 C 1186.18 2045.15 1172.13 2036.82 1159.3 2022.74 C 1136.84 1998.09 1112.13 1975.28 1088.53 1951.69 L 937.474 1801.15 L 365.274 1227.39 C 352.839 1214.69 339.737 1202.65 327.209 1190.04 C 296.954 1159.35 266.511 1128.85 235.883 1098.53 C 218.38 1081.51 201.387 1064.15 184.18 1046.84 C 173.864 1036.46 162.106 1026.42 153.466 1014.62 C 141.603 998.406 140.167 980.311 141.228 960.855 C 142.688 934.107 145.862 907.426 147.991 880.721 C 155.369 788.156 164.29 695.689 170.229 603.027 C 171.958 576.05 176.299 548.627 176.573 521.656 C 166.225 507.658 153.706 495.651 141.509 483.295 L 91.9198 433.086 C 66.8148 407.933 44.2172 386.692 26.4322 355.488 C 17.6654 340.193 11.2225 323.679 7.31494 306.489 C 5.19452 297.099 4.24414 284.407 0 275.905 L 0 234.092 z M 281.983 980.141 C 285.576 986.511 383.658 1084.7 387.156 1086.27 C 398.384 1095.35 408.392 1107.08 418.517 1117.4 L 468.764 1168.07 L 682.301 1380.73 C 703.557 1401.62 724.12 1423.12 745.539 1443.86 C 753.468 1451.54 761.019 1459.92 769.69 1466.76 C 771.381 1469.78 773.366 1471.93 775.788 1474.4 C 778.084 1466.32 783.241 1463.79 787.613 1457.2 C 786.354 1455.52 783.568 1458.15 781.462 1457.16 C 789.577 1450.32 798.855 1445.34 807.293 1438.99 C 815.118 1433.09 822.335 1425.47 829.078 1418.39 C 835.743 1411.4 850.621 1385.48 855.646 1382.51 C 859.448 1380.27 865.38 1382.82 869.444 1383.65 C 873.727 1384.52 879.267 1385.35 883.008 1382.54 C 883.498 1382.17 883.962 1381.77 884.439 1381.38 C 877.894 1379.6 872.149 1376.19 865.642 1374.3 C 861.248 1376.82 860.263 1376.59 855.462 1375.65 C 856.483 1374.77 855.864 1375.24 857.614 1374.26 L 859.109 1373.44 C 859.872 1371.19 859.796 1370.05 858.504 1368.04 C 856.659 1365.16 853.674 1362.6 851.48 1359.95 C 843.511 1350.31 838.944 1338.32 838.487 1325.82 C 838.124 1315.52 840.114 1302.92 845.639 1294.05 C 856.83 1276.09 887.14 1250.75 903.128 1234.58 C 959.736 1177.36 1018.03 1121.48 1073.31 1063 C 1078.56 1058.28 1084.17 1053.36 1088.47 1047.75 L 1090.84 1045.81 C 1093.55 1043.82 1096 1041.05 1098.43 1038.71 C 1106.52 1031.07 1114.44 1023.26 1122.17 1015.26 C 1130.12 1009.77 1138.5 1000.21 1145.22 993.083 C 1148.83 990.17 1152.02 986.605 1155.28 983.305 L 1154.08 982.513 C 1151.84 982.341 1152.97 982.506 1150.71 982.003 C 1149.85 977.886 1149.12 974.606 1146.94 970.986 L 1147 971.558 C 1141.34 964.427 1132.23 961.121 1123.55 959.562 C 1123.28 959.29 1123.01 959.014 1122.73 958.747 C 1120.61 956.704 1119.19 955.199 1118.22 952.328 C 1111.65 932.859 1118.24 928.134 1125.66 912.003 C 1127.17 908.708 1126.61 905.11 1125.34 901.732 C 1124.52 899.567 1124.98 901.392 1124.39 898.72 C 1124.29 898.255 1124.2 897.786 1124.11 897.319 C 1137.39 883.476 1155.13 868.635 1164.81 852.097 C 1139.63 871.693 1118.23 898.103 1095.3 920.405 C 1055.77 957.467 1018.11 996.754 980.043 1035.31 L 859.568 1155.16 L 820.701 1194.14 C 807.465 1207.48 793.225 1225.15 776.096 1233.57 C 762.684 1240.16 747.314 1240.15 733.343 1235.29 C 717.715 1229.85 704.188 1219.33 697.213 1204.04 C 690.597 1189.58 690.122 1173.06 695.895 1158.25 C 699.034 1150.32 704.018 1143.64 709.795 1137.44 C 716.744 1129.99 724.417 1123.19 731.602 1115.96 L 791.128 1056.24 L 951.647 895.62 C 988.361 858.939 1025.35 822.385 1061.51 785.164 C 1085.7 760.258 1109.14 733.835 1134.57 710.203 C 1140.78 704.426 1147.44 699.556 1155.34 696.352 C 1170.51 690.207 1188.02 690.68 1203.04 697.064 C 1224.25 706.082 1231.87 721.897 1240.11 742.05 L 1241.24 742.391 L 1244.42 739.823 C 1244.27 741.313 1244.57 742.314 1243.39 743.364 C 1242.1 744.51 1240.89 744.837 1239.29 745.356 C 1238.14 750.621 1238.18 755.835 1237.27 761.078 C 1235.97 768.496 1231.72 776.64 1228.39 783.405 C 1230.05 784.112 1231.11 784.357 1232.91 784.361 C 1248.65 774.776 1242.51 751.33 1248.99 742.075 C 1251.23 738.873 1256.89 738.411 1260.36 737.836 C 1266.13 739.235 1271.93 740.527 1277.74 741.713 C 1289.11 743.432 1300.79 746.843 1312.23 747.541 C 1329.3 748.582 1342.52 732.689 1354.62 722.481 C 1367.47 718.255 1374.6 709.197 1382.74 698.966 C 1384.03 697.113 1383.35 697.651 1384.98 696.67 C 1386.67 695.66 1385.71 696.441 1387.23 694.868 C 1385.78 690.037 1379.36 684.225 1375.79 680.774 C 1355.55 659.375 1334.4 639.047 1313.6 618.211 L 1167.17 471.705 L 1046.78 351.23 C 1018.03 322.145 989.649 291.676 959.675 263.881 C 955.1 259.64 943.637 260.583 937.594 260.99 C 913.125 262.64 888.718 265.484 864.257 267.321 L 551.053 291.316 L 408.772 301.498 C 389.428 303.063 368.819 302.871 349.873 306.913 C 335.327 310.017 324.169 316.665 314.464 327.981 C 305.136 338.857 301.085 350.749 299.176 364.783 C 296.722 382.823 296.704 401.119 295.852 419.278 L 291.736 493.401 L 276.204 728.475 C 272.744 778.143 268.083 827.852 263.904 877.47 C 261.779 902.693 257.113 929.334 258.896 954.611 C 258.961 955.537 259.077 956.459 259.18 957.381 C 265.844 964.632 273.808 974.845 281.983 980.141 z M 370.418 189.771 C 333.407 153.407 306.861 118.547 250.026 118.851 C 245.635 118.875 241.237 119.144 236.855 119.414 C 200.631 121.808 170.813 136.369 146.932 163.949 C 125.197 189.048 113.495 225.13 115.914 258.214 C 118.5 293.575 138.669 326.724 165.449 349.212 C 172.973 355.531 180.882 361.48 188.577 367.598 C 189.994 350.303 193.357 330.795 198.91 314.338 C 216.958 265.891 247.828 227.056 295.572 205.099 C 319.093 194.557 344.646 189.324 370.418 189.771 z"/>
<path transform="translate(0,0)" fill="rgb(0,0,0)" d="M 507.828 357.86 C 611.77 347.99 704.024 424.274 713.851 528.22 C 723.679 632.166 647.357 724.388 543.407 734.173 C 439.517 743.952 347.361 667.684 337.539 563.799 C 327.717 459.913 403.947 367.725 507.828 357.86 z M 451.983 546.384 C 456.732 573.596 463.853 590.404 487.012 607.003 C 505.714 616.731 526.4 620.53 546.868 613.956 C 566.196 607.75 584.286 592.212 593.376 574.048 C 601.721 557.374 602.311 538.891 596.381 521.351 C 590.174 502.677 576.703 487.292 559.012 478.673 C 555.554 476.978 551.936 475.302 548.126 474.643 C 556.263 492.206 560.725 510.533 553.896 529.465 C 548.53 544.345 537.373 557.098 522.852 563.606 C 509.295 569.792 493.831 570.319 479.885 565.07 C 469.111 561.052 460.374 554.032 451.983 546.384 z"/>
<path transform="translate(0,0)" fill="rgb(254,254,254)" d="M 1382.74 698.966 C 1387.93 701.684 1389.62 701.917 1395.42 701.297 C 1413.62 714.984 1439.69 743.229 1456.51 759.987 L 1575.41 879.299 L 1787.44 1091.62 C 1826.75 1130.95 1867.43 1169.26 1905.05 1210.22 C 1821.02 1296.96 1733.69 1380.86 1647.55 1465.51 L 1375.19 1737.44 L 1273.22 1840.83 C 1251.4 1862.97 1229.04 1884.69 1207.98 1907.56 C 1190.97 1887.8 1170.88 1869.78 1152.35 1851.37 C 1121.28 1820.04 1090.02 1788.89 1058.58 1757.94 L 924.991 1623.53 C 874.921 1574.16 825.185 1524.44 775.788 1474.4 C 778.084 1466.32 783.241 1463.79 787.613 1457.2 C 786.354 1455.52 783.568 1458.15 781.462 1457.16 C 789.577 1450.32 798.855 1445.34 807.293 1438.99 C 815.118 1433.09 822.335 1425.47 829.078 1418.39 C 835.743 1411.4 850.621 1385.48 855.646 1382.51 C 859.448 1380.27 865.38 1382.82 869.444 1383.65 C 873.727 1384.52 879.267 1385.35 883.008 1382.54 C 883.498 1382.17 883.962 1381.77 884.439 1381.38 C 877.894 1379.6 872.149 1376.19 865.642 1374.3 C 861.248 1376.82 860.263 1376.59 855.462 1375.65 C 856.483 1374.77 855.864 1375.24 857.614 1374.26 L 859.109 1373.44 C 859.872 1371.19 859.796 1370.05 858.504 1368.04 C 856.659 1365.16 853.674 1362.6 851.48 1359.95 C 843.511 1350.31 838.944 1338.32 838.487 1325.82 C 838.124 1315.52 840.114 1302.92 845.639 1294.05 C 856.83 1276.09 887.14 1250.75 903.128 1234.58 C 959.736 1177.36 1018.03 1121.48 1073.31 1063 C 1078.56 1058.28 1084.17 1053.36 1088.47 1047.75 L 1090.84 1045.81 C 1093.55 1043.82 1096 1041.05 1098.43 1038.71 C 1106.52 1031.07 1114.44 1023.26 1122.17 1015.26 C 1130.12 1009.77 1138.5 1000.21 1145.22 993.083 C 1148.83 990.17 1152.02 986.605 1155.28 983.305 L 1154.08 982.513 C 1151.84 982.341 1152.97 982.506 1150.71 982.003 C 1149.85 977.886 1149.12 974.606 1146.94 970.986 L 1147 971.558 C 1141.34 964.427 1132.23 961.121 1123.55 959.562 C 1123.28 959.29 1123.01 959.014 1122.73 958.747 C 1120.61 956.704 1119.19 955.199 1118.22 952.328 C 1111.65 932.859 1118.24 928.134 1125.66 912.003 C 1127.17 908.708 1126.61 905.11 1125.34 901.732 C 1124.52 899.567 1124.98 901.392 1124.39 898.72 C 1124.29 898.255 1124.2 897.786 1124.11 897.319 C 1137.39 883.476 1155.13 868.635 1164.81 852.097 C 1184.41 827.597 1210.6 809.302 1228.39 783.405 C 1230.05 784.112 1231.11 784.357 1232.91 784.361 C 1248.65 774.776 1242.51 751.33 1248.99 742.075 C 1251.23 738.873 1256.89 738.411 1260.36 737.836 C 1266.13 739.235 1271.93 740.527 1277.74 741.713 C 1289.11 743.432 1300.79 746.843 1312.23 747.541 C 1329.3 748.582 1342.52 732.689 1354.62 722.481 C 1367.47 718.255 1374.6 709.197 1382.74 698.966 z"/>
<path transform="translate(0,0)" fill="rgb(0,0,0)" d="M 1155.28 983.305 C 1181.98 957.202 1208.52 930.934 1234.9 904.503 C 1250.3 889.065 1272.92 862.84 1290.62 851.623 C 1299.21 846.179 1311.43 843.109 1321.54 843.191 C 1337.23 843.442 1352.14 850.079 1362.82 861.571 C 1373.51 872.925 1379.05 885.769 1378.29 901.543 C 1377.82 911.419 1374.78 924.62 1368.46 932.344 C 1341.95 964.773 1303.05 1000.13 1272.69 1030.01 C 1232.37 1069.7 1192.99 1110.46 1153.02 1150.53 L 990.995 1313.3 C 971.355 1332.68 952.6 1354.53 931.55 1372.28 C 924.234 1378.44 915.479 1382.01 905.99 1383.12 C 898.761 1383.93 891.444 1383.34 884.439 1381.38 C 877.894 1379.6 872.149 1376.19 865.642 1374.3 C 861.248 1376.82 860.263 1376.59 855.462 1375.65 C 856.483 1374.77 855.864 1375.24 857.614 1374.26 L 859.109 1373.44 C 859.872 1371.19 859.796 1370.05 858.504 1368.04 C 856.659 1365.16 853.674 1362.6 851.48 1359.95 C 843.511 1350.31 838.944 1338.32 838.487 1325.82 C 838.124 1315.52 840.114 1302.92 845.639 1294.05 C 856.83 1276.09 887.14 1250.75 903.128 1234.58 C 959.736 1177.36 1018.03 1121.48 1073.31 1063 C 1078.56 1058.28 1084.17 1053.36 1088.47 1047.75 L 1090.84 1045.81 C 1093.55 1043.82 1096 1041.05 1098.43 1038.71 C 1106.52 1031.07 1114.44 1023.26 1122.17 1015.26 C 1130.12 1009.77 1138.5 1000.21 1145.22 993.083 C 1148.83 990.17 1152.02 986.605 1155.28 983.305 z"/>
<path transform="translate(0,0)" fill="rgb(0,0,0)" d="M 1455.94 990.349 C 1468.01 989.507 1480.24 992.636 1490.72 998.632 C 1505.08 1006.86 1514.39 1020.67 1518.43 1036.52 C 1521.64 1049.08 1521.71 1066.99 1514.47 1078.25 C 1501.71 1098.11 1480.54 1114.95 1463.83 1131.58 L 1360.88 1233.6 L 1175.43 1419.21 C 1157.32 1437.29 1138.6 1454.79 1120.56 1472.92 C 1108.93 1484.62 1098.1 1497.44 1085.63 1508.25 C 1075.34 1517.18 1066.01 1522.31 1052.64 1525.27 C 1037.19 1526 1023 1522.53 1010.27 1513.55 C 997.373 1504.46 988.224 1491.28 985.692 1475.53 C 983.25 1460.35 987.375 1445.37 996.555 1433.16 C 1004.22 1422.96 1014.52 1414.03 1023.55 1405.04 L 1070.97 1357.81 L 1225.31 1203.08 C 1266.91 1162.1 1308.14 1120.74 1348.98 1079.01 L 1397.52 1029.77 C 1406.91 1020.31 1416.13 1010.19 1426.4 1001.68 C 1434.96 994.58 1445.19 991.852 1455.94 990.349 z"/>
<path transform="translate(0,0)" fill="rgb(0,0,0)" d="M 1600.51 1135.22 C 1613.39 1134.34 1625.39 1136.56 1636.92 1142.47 C 1650.84 1149.6 1661.18 1161.59 1665.9 1176.53 C 1670.23 1190.27 1668.87 1208.32 1661.46 1220.97 C 1651.17 1238.53 1617.36 1267.96 1601.3 1283.75 L 1534.99 1349.96 L 1343.68 1541.34 L 1279.09 1606.22 C 1265.82 1619.62 1252.81 1633.96 1238.58 1646.31 C 1228.71 1654.88 1219.34 1660.11 1206.7 1663.44 C 1192.42 1666.73 1177.84 1663.73 1165.34 1656.29 C 1151.16 1647.83 1140.99 1634.02 1137.12 1617.98 C 1134.41 1606.45 1135.88 1587.74 1142.7 1577.41 C 1154.31 1559.83 1181.25 1537.33 1197.16 1521.65 L 1298.09 1421.09 L 1488.45 1230.88 L 1542.75 1176.92 C 1552.7 1166.96 1562.47 1155.92 1573.23 1146.86 C 1581.33 1140.05 1590.32 1137.07 1600.51 1135.22 z"/>
<path transform="translate(0,0)" fill="rgb(0,0,0)" d="M 1095.3 920.405 C 1055.77 957.467 1018.11 996.754 980.043 1035.31 L 859.568 1155.16 L 820.701 1194.14 C 807.465 1207.48 793.225 1225.15 776.096 1233.57 C 762.684 1240.16 747.314 1240.15 733.343 1235.29 C 717.715 1229.85 704.188 1219.33 697.213 1204.04 C 690.597 1189.58 690.122 1173.06 695.895 1158.25 C 699.034 1150.32 704.018 1143.64 709.795 1137.44 C 716.744 1129.99 724.417 1123.19 731.602 1115.96 L 791.128 1056.24 L 951.647 895.62 C 988.361 858.939 1025.35 822.385 1061.51 785.164 C 1085.7 760.258 1109.14 733.835 1134.57 710.203 C 1140.78 704.426 1147.44 699.556 1155.34 696.352 C 1170.51 690.207 1188.02 690.68 1203.04 697.064 C 1224.25 706.082 1231.87 721.897 1240.11 742.05 L 1241.24 742.391 L 1244.42 739.823 C 1244.27 741.313 1244.57 742.314 1243.39 743.364 C 1242.1 744.51 1240.89 744.837 1239.29 745.356 C 1238.14 750.621 1238.18 755.835 1237.27 761.078 C 1235.97 768.496 1231.72 776.64 1228.39 783.405 C 1210.6 809.302 1184.41 827.597 1164.81 852.097 C 1139.63 871.693 1118.23 898.103 1095.3 920.405 z"/>
<path transform="translate(0,0)" fill="rgb(107,106,106)" fill-opacity="0.709804" d="M 281.983 980.141 L 285.962 982.562 C 286.511 978.902 279.645 975.589 283.433 971.931 C 291.106 972.656 301.973 985.167 307.962 990.235 C 313.272 994.728 319.08 998.602 324.382 1003.1 C 343.593 1019.39 363.792 1038.14 379.905 1057.51 C 384.24 1062.73 403.662 1086.89 403.279 1092.2 C 403.257 1092.51 403.143 1092.81 403.075 1093.11 L 401.797 1093.68 C 397.182 1090.75 393.922 1085.13 388.939 1083.2 L 387.277 1084 L 387.156 1086.27 C 383.658 1084.7 285.576 986.511 281.983 980.141 z"/>
<path transform="translate(0,0)" fill="url(#Gradient5)" d="M 1095.3 920.405 C 1118.23 898.103 1139.63 871.693 1164.81 852.097 C 1155.13 868.635 1137.39 883.476 1124.11 897.319 C 1119.68 902.593 1115.36 907.789 1111.55 913.528 C 1112.32 928.244 1112.88 940.251 1116.87 954.654 L 1117.48 962.015 C 1112.62 963.197 1106.4 964.997 1103.78 969.808 C 1102.51 972.141 1102.11 974.913 1103.1 977.446 C 1103.64 978.829 1105.02 980.139 1105.98 981.24 C 1105.83 981.831 1105.69 982.427 1105.52 983.014 C 1104.08 987.94 1099.34 991.003 1097.61 995.436 C 1095.46 1000.99 1104.59 1018.31 1101.56 1028.95 C 1099.8 1031 1098.92 1033.1 1097.77 1035.51 L 1098.43 1038.71 C 1096 1041.05 1093.55 1043.82 1090.84 1045.81 C 1089.73 1044.41 1089.36 1043.78 1088.74 1042.02 C 1091.18 1036.99 1095.77 1032.98 1099.16 1028.48 C 1095.18 1016.21 1087.78 1001.43 1087.27 988.637 L 1087.99 988.852 L 1088.68 992.82 C 1090.07 991.02 1090.35 990.711 1090.66 988.507 C 1090.76 987.843 1091 986.346 1091.04 985.684 C 1091.13 984.404 1090.95 983.079 1091.23 981.808 C 1091.57 980.235 1102.38 959.624 1103.89 957.894 C 1104.94 956.678 1106.71 955.889 1108.1 955.136 C 1110.14 954.032 1111.38 953.456 1112.7 951.464 C 1112.23 938.982 1103.29 942.387 1098.75 934.898 C 1098.54 933.184 1098.7 931.997 1099.16 930.354 L 1099.68 928.52 C 1098.48 926.409 1097.98 926.395 1095.74 925.357 L 1095.3 920.405 z"/>
<path transform="translate(0,0)" fill="url(#Gradient4)" d="M 1116.87 954.654 L 1120.4 964.939 L 1121.51 965.821 C 1129.08 971.717 1144.19 976.619 1145.44 987.409 C 1145.66 989.284 1145.05 991.18 1145.22 993.083 C 1138.5 1000.21 1130.12 1009.77 1122.17 1015.26 L 1119.97 1013.68 C 1118.73 1014.26 1117.59 1014.79 1116.25 1015.12 C 1115.96 1015.19 1115.66 1015.25 1115.36 1015.31 L 1116.1 1015.57 L 1115.47 1014.74 C 1116.4 1013.62 1117.33 1012.48 1118.25 1011.34 C 1122.03 1006.66 1127.06 1002.12 1126.39 995.766 C 1124.45 993.971 1124.5 994.003 1121.86 993.952 C 1120.35 996.002 1119.39 997.387 1117.03 998.477 C 1116.46 998.741 1115.88 998.983 1115.3 999.236 C 1119.38 988.281 1118.29 973.665 1117.48 962.015 L 1116.87 954.654 z"/>
<path transform="translate(0,0)" fill="rgb(210,209,209)" fill-opacity="0.894118" d="M 1111.55 913.528 C 1115.36 907.789 1119.68 902.593 1124.11 897.319 C 1124.2 897.786 1124.29 898.255 1124.39 898.72 C 1124.98 901.392 1124.52 899.567 1125.34 901.732 C 1126.61 905.11 1127.17 908.708 1125.66 912.003 C 1118.24 928.134 1111.65 932.859 1118.22 952.328 C 1119.19 955.199 1120.61 956.704 1122.73 958.747 C 1123.01 959.014 1123.28 959.29 1123.55 959.562 C 1132.23 961.121 1141.34 964.427 1147 971.558 L 1146.94 970.986 C 1149.12 974.606 1149.85 977.886 1150.71 982.003 C 1152.97 982.506 1151.84 982.341 1154.08 982.513 L 1155.28 983.305 C 1152.02 986.605 1148.83 990.17 1145.22 993.083 C 1145.05 991.18 1145.66 989.284 1145.44 987.409 C 1144.19 976.619 1129.08 971.717 1121.51 965.821 L 1120.4 964.939 L 1116.87 954.654 C 1112.88 940.251 1112.32 928.244 1111.55 913.528 z"/>
<path transform="translate(0,0)" fill="rgb(210,209,209)" fill-opacity="0.901961" d="M 855.462 1375.65 C 860.263 1376.59 861.248 1376.82 865.642 1374.3 C 872.149 1376.19 877.894 1379.6 884.439 1381.38 C 883.962 1381.77 883.498 1382.17 883.008 1382.54 C 879.267 1385.35 873.727 1384.52 869.444 1383.65 C 865.38 1382.82 859.448 1380.27 855.646 1382.51 C 850.621 1385.48 835.743 1411.4 829.078 1418.39 C 822.335 1425.47 815.118 1433.09 807.293 1438.99 C 798.855 1445.34 789.577 1450.32 781.462 1457.16 C 783.568 1458.15 786.354 1455.52 787.613 1457.2 C 783.241 1463.79 778.084 1466.32 775.788 1474.4 C 773.366 1471.93 771.381 1469.78 769.69 1466.76 C 769.368 1461.25 770.418 1458.22 772.917 1453.32 C 775.403 1450.52 778.728 1448.54 781.808 1446.44 C 784.746 1446.28 787.828 1446.16 790.699 1445.47 C 815.41 1439.58 841.804 1397.46 854.165 1377.1 L 855.462 1375.65 z"/>
<path transform="translate(0,0)" fill="url(#Gradient3)" d="M 1117.48 962.015 C 1118.29 973.665 1119.38 988.281 1115.3 999.236 C 1110.1 1007.97 1109.57 1017.45 1103.68 1026.03 C 1103.9 1023.99 1104.08 1022.5 1103.7 1020.47 C 1100.81 1005.17 1108.77 1000.06 1107.31 991.908 C 1106.67 988.345 1106.85 984.72 1105.98 981.24 C 1105.02 980.139 1103.64 978.829 1103.1 977.446 C 1102.11 974.913 1102.51 972.141 1103.78 969.808 C 1106.4 964.997 1112.62 963.197 1117.48 962.015 z"/>
<path transform="translate(0,0)" fill="rgb(107,106,106)" fill-opacity="0.164706" d="M 1375.79 680.774 C 1379.36 684.225 1385.78 690.037 1387.23 694.868 C 1385.71 696.441 1386.67 695.66 1384.98 696.67 C 1383.35 697.651 1384.03 697.113 1382.74 698.966 C 1374.6 709.197 1367.47 718.255 1354.62 722.481 C 1356.05 718.188 1360.26 713.594 1362.87 709.767 C 1366.56 702.485 1372.3 693.094 1370.4 684.905 L 1371.43 683.374 L 1374.42 683.226 L 1375.79 680.774 z"/>
<path transform="translate(0,0)" fill="rgb(210,209,209)" fill-opacity="0.960784" d="M 1247.23 733.779 C 1251.58 735.487 1255.81 736.765 1260.36 737.836 C 1256.89 738.411 1251.23 738.873 1248.99 742.075 C 1242.51 751.33 1248.65 774.776 1232.91 784.361 C 1231.11 784.357 1230.05 784.112 1228.39 783.405 C 1231.72 776.64 1235.97 768.496 1237.27 761.078 C 1238.18 755.835 1238.14 750.621 1239.29 745.356 C 1240.89 744.837 1242.1 744.51 1243.39 743.364 C 1244.57 742.314 1244.27 741.313 1244.42 739.823 C 1245.18 737.71 1246.22 735.778 1247.23 733.779 z"/>
<path transform="translate(0,0)" fill="url(#Gradient2)" d="M 1115.3 999.236 C 1115.88 998.983 1116.46 998.741 1117.03 998.477 C 1119.39 997.387 1120.35 996.002 1121.86 993.952 C 1124.5 994.003 1124.45 993.971 1126.39 995.766 C 1127.06 1002.12 1122.03 1006.66 1118.25 1011.34 C 1117.33 1012.48 1116.4 1013.62 1115.47 1014.74 L 1116.1 1015.57 L 1115.36 1015.31 C 1115.66 1015.25 1115.96 1015.19 1116.25 1015.12 C 1117.59 1014.79 1118.73 1014.26 1119.97 1013.68 L 1122.17 1015.26 C 1114.44 1023.26 1106.52 1031.07 1098.43 1038.71 L 1097.77 1035.51 C 1098.92 1033.1 1099.8 1031 1101.56 1028.95 L 1103.68 1026.03 C 1109.57 1017.45 1110.1 1007.97 1115.3 999.236 z"/>
<path transform="translate(0,0)" fill="url(#Gradient1)" d="M 1105.98 981.24 C 1106.85 984.72 1106.67 988.345 1107.31 991.908 C 1108.77 1000.06 1100.81 1005.17 1103.7 1020.47 C 1104.08 1022.5 1103.9 1023.99 1103.68 1026.03 L 1101.56 1028.95 C 1104.59 1018.31 1095.46 1000.99 1097.61 995.436 C 1099.34 991.003 1104.08 987.94 1105.52 983.014 C 1105.69 982.427 1105.83 981.831 1105.98 981.24 z"/>
</svg>