<svg id="eYIWB7fp59T1" xmlns="http://www.w3.org/2000/svg" xmlns:xlink="http://www.w3.org/1999/xlink" viewBox="0 -73 511.99909 511" shape-rendering="geometricPrecision" text-rendering="geometricPrecision" project-id="44c9a41054494e97aa3264dc7ec9a827" export-id="9500e9300670448daebe55766b23fcef" cached="false"><path d="M425.421875,365.386719h-340.90625c-40.359375,0-74.347656-30.222657-79.054687-70.316407-7.28125-61.816406-7.28125-162.4375,0-224.273437C10.167969,30.71875,44.152344,0.5,84.515625,0.5h341.28125c40.226563,0,74.195313,30.101562,79.03125,70.027344l2.742187,22.671875c5.675782,46.847656,5.929688,123.085937.578126,169.9375l-3.632813,31.695312c-4.601563,40.214844-38.597656,70.554688-79.09375,70.554688ZM84.515625,35.25c-22.738281,0-41.886719,17.039062-44.542969,39.605469-7.015625,59.605469-7.015625,156.566406,0,216.15625c2.652344,22.585937,21.804688,39.621093,44.542969,39.621093h340.910156c22.8125,0,41.96875-17.085937,44.558594-39.753906l3.632813-31.699218c5.105468-44.59375,4.859374-117.183594-.542969-161.808594l-2.742188-22.671875C467.605469,52.21875,448.457031,35.25,425.796875,35.25h-341.28125Zm0,0" fill="#d1d5db"/><path d="M324.5625,182.941406l-121.34375-60.8125v121.628906L324.5625,182.941406Zm0,0" fill="#d1d5db"/><path d="M203.222656,261.132812c-3.171875,0-6.335937-.863281-9.128906-2.597656-5.121094-3.152344-8.246094-8.753906-8.246094-14.777344v-121.628906c0-6.023437,3.125-11.625,8.246094-14.78125c5.132812-3.171875,11.53125-3.460937,16.917969-.746094l121.339843,60.8125c5.878907,2.9375,9.585938,8.941407,9.585938,15.527344c0,6.582032-3.707031,12.589844-9.585938,15.523438L211.011719,259.28125c-2.460938,1.242188-5.125,1.851562-7.789063,1.851562Zm17.375-110.855468v65.328125l65.183594-32.664063-65.183594-32.664062Zm0,0" fill="#d1d5db"/></svg>
