<svg xmlns="http://www.w3.org/2000/svg" width="100%" height="100%" viewBox="22 120 806 592">
    
    <g  fill="#0d0d0d">
        <g >
            <path d="M505.813,528.141c0.107-0.093,0.213-0.185,0.32-0.278c-0.001-0.015-0.002-0.03-0.003-0.045   C506.052,527.937,505.955,528.05,505.813,528.141z"></path>
            <path d="M506.436,500.158c-2.179-0.634-4.033-0.189-6.126-0.015c-2.221,0.746-4.833,2.318-6.716,3.985   c-4.229,3.746-5.364,9.643-3.303,14.854c2.29,5.792,9.543,7.942,14.941,7.434c0.052-0.005,0.094,0.007,0.143,0.009   c0.018-0.004,0.025-0.004,0.047-0.009c0.172-0.039,0.34-0.093,0.508-0.145c0.501-0.156,0.99-0.358,1.473-0.561   c1.541-0.646,3.016-1.464,4.372-2.439c3.656-2.628,5.823-6.489,4.902-11.048C515.616,506.966,511.694,501.69,506.436,500.158z"></path>
            <path d="M500.064,472.689c-22.14,1.513-38.862,20.687-37.35,42.827c1.513,22.14,20.687,38.862,42.827,37.35   c22.14-1.513,38.862-20.687,37.35-42.827C541.378,487.898,522.204,471.176,500.064,472.689z M512.914,525.812   c-1.559,1.085-3.314,1.84-5.084,2.525c-0.406,0.157-1.485,0.611-2.339,0.691c0.003,0.009,0.006,0.022,0.008,0.031   c-6.771,0.638-14.995-2.287-17.646-8.992c-2.186-5.531-0.298-12.294,3.752-16.564c2.059-2.171,4.849-3.904,7.705-4.94   c0.057-0.056,0.129-0.094,0.2-0.131c0.102-0.053,0.199-0.07,0.294-0.085c0.017-0.031,0.542-0.127,0.649-0.15   c0.633-0.133,1.276-0.205,1.921-0.245c2.009-0.126,3.996,0.171,5.88,0.881c5.612,2.114,9.672,8.49,10.429,14.264   C519.337,518.074,516.834,523.085,512.914,525.812z"></path>
            <path d="M656.933,508.704c0.107-0.093,0.213-0.185,0.32-0.278c-0.001-0.015-0.002-0.03-0.002-0.045   C657.172,508.5,657.075,508.612,656.933,508.704z"></path>
            <path d="M641.411,499.546c2.29,5.792,9.543,7.942,14.942,7.434c0.052-0.005,0.094,0.007,0.143,0.009   c0.018-0.004,0.025-0.004,0.047-0.009c0.172-0.039,0.34-0.093,0.508-0.145c0.501-0.156,0.99-0.358,1.473-0.561   c1.541-0.646,3.016-1.464,4.372-2.439c3.656-2.628,5.823-6.489,4.902-11.048c-1.062-5.258-4.984-10.534-10.242-12.065   c-2.179-0.634-4.033-0.189-6.126-0.015c-2.221,0.746-4.833,2.318-6.716,3.985C640.485,488.437,639.35,494.334,641.411,499.546z"></path>
            <path d="M613.925,497.407c1.5,21.96,20.518,38.545,42.478,37.045c21.96-1.5,38.545-20.518,37.045-42.478   c-1.5-21.96-20.518-38.545-42.478-37.045C629.01,456.43,612.425,475.448,613.925,497.407z M653.494,478.513   c2.009-0.126,3.995,0.171,5.88,0.881c5.612,2.114,9.672,8.49,10.43,14.264c0.653,4.979-1.849,9.99-5.769,12.717   c-1.56,1.085-3.314,1.84-5.084,2.525c-0.406,0.157-1.485,0.611-2.339,0.691c0.003,0.009,0.006,0.022,0.009,0.031   c-6.771,0.637-14.995-2.288-17.646-8.992c-2.186-5.531-0.298-12.294,3.752-16.564c2.059-2.171,4.849-3.904,7.705-4.94   c0.057-0.056,0.129-0.094,0.2-0.131c0.102-0.053,0.199-0.07,0.294-0.085c0.017-0.031,0.542-0.127,0.649-0.15   C652.206,478.625,652.849,478.553,653.494,478.513z"></path>
            <path d="M360.342,524.525c0.107-0.093,0.213-0.185,0.32-0.278c-0.001-0.015-0.002-0.03-0.002-0.045   C360.582,524.321,360.484,524.433,360.342,524.525z"></path>
            <path d="M360.741,550.138c21.85-1.493,38.353-20.416,36.86-42.266c-1.493-21.85-20.416-38.353-42.266-36.86   c-21.85,1.493-38.353,20.416-36.86,42.266C319.968,535.128,338.891,551.63,360.741,550.138z M346.135,499.886   c2.059-2.171,4.849-3.904,7.705-4.94c0.057-0.056,0.129-0.094,0.2-0.131c0.102-0.053,0.199-0.07,0.294-0.085   c0.017-0.031,0.542-0.127,0.649-0.15c0.633-0.133,1.276-0.205,1.921-0.246c2.009-0.126,3.996,0.171,5.88,0.881   c5.612,2.114,9.672,8.49,10.429,14.264c0.653,4.979-1.849,9.99-5.769,12.717c-1.559,1.085-3.314,1.84-5.084,2.525   c-0.406,0.157-1.485,0.611-2.339,0.691c0.003,0.009,0.005,0.022,0.008,0.031c-6.771,0.637-14.995-2.288-17.646-8.992   C340.197,510.919,342.085,504.156,346.135,499.886z"></path>
            <path d="M359.762,522.801c0.052-0.005,0.094,0.007,0.143,0.009c0.017-0.004,0.025-0.004,0.047-0.009   c0.172-0.039,0.34-0.093,0.508-0.145c0.501-0.156,0.99-0.358,1.473-0.561c1.541-0.646,3.016-1.464,4.372-2.439   c3.656-2.628,5.823-6.49,4.902-11.048c-1.062-5.258-4.984-10.534-10.242-12.065c-2.179-0.634-4.033-0.189-6.126-0.015   c-2.221,0.746-4.833,2.318-6.716,3.985c-4.229,3.746-5.364,9.643-3.303,14.854C347.11,521.159,354.363,523.309,359.762,522.801z"></path>
            <path d="M217.16,499.191c0.107-0.093,0.213-0.185,0.32-0.278c-0.001-0.015-0.002-0.03-0.002-0.045   C217.399,498.987,217.301,499.1,217.16,499.191z"></path>
            <path d="M216.579,497.467c0.052-0.005,0.094,0.007,0.143,0.009c0.018-0.004,0.025-0.004,0.047-0.009   c0.172-0.039,0.34-0.093,0.508-0.145c0.501-0.156,0.99-0.358,1.473-0.561c1.541-0.646,3.016-1.464,4.372-2.439   c3.656-2.628,5.823-6.49,4.902-11.048c-1.062-5.258-4.984-10.534-10.242-12.065c-2.179-0.634-4.033-0.189-6.126-0.015   c-2.221,0.746-4.833,2.318-6.716,3.985c-4.229,3.746-5.364,9.643-3.304,14.854C203.927,495.826,211.18,497.975,216.579,497.467z"></path>
            <path d="M176.676,488.271c1.456,21.309,19.91,37.403,41.219,35.947c21.309-1.456,37.403-19.91,35.947-41.219   c-1.456-21.309-19.91-37.403-41.219-35.947C191.314,448.508,175.22,466.962,176.676,488.271z M202.952,474.552   c2.059-2.171,4.849-3.904,7.705-4.94c0.057-0.056,0.129-0.094,0.2-0.131c0.102-0.053,0.199-0.07,0.295-0.085   c0.017-0.031,0.541-0.127,0.649-0.15c0.633-0.133,1.276-0.205,1.921-0.245c2.009-0.126,3.996,0.171,5.88,0.881   c5.612,2.114,9.672,8.49,10.43,14.264c0.653,4.979-1.849,9.99-5.769,12.717c-1.559,1.085-3.314,1.84-5.084,2.525   c-0.406,0.157-1.485,0.611-2.339,0.691c0.003,0.009,0.005,0.022,0.008,0.031c-6.771,0.637-14.995-2.287-17.646-8.992   C197.014,485.585,198.903,478.822,202.952,474.552z"></path>
            <path d="M826.009,340.851c-5.829-36.877-22.648-96.207-68.982-120.149c-3.565-2.358-32.339-11.518-54.782-5.301   c-7.806,2.162-16.6,7.854-25.009,14.546c-4.879,5.509-9.783,12.936-14.187,23.008c-0.108,0.371-10.57,37.316,5.578,59.196   c7.686,10.413,19.433,17.521,36.301,17.802c0.166-0.003,11.202-0.649,21.21-5.161c5.622-3.403,12.513-9.049,15.811-14.336   c5.925-9.495,7.917-28.996-3.059-38.393c-2.555,6.758-16.527,32.064-32.933,34.136c-6.607,0.831-14.362-3.261-19.057-12.484   c-0.072-0.14-4.797-8.37,1.15-21.99c2.981-6.827,6.99-12.115,15.146-18.89c3.484-2.553,8.197-4.866,13.877-6.427   c11.394-3.132,35.546,7.198,46.699,23.658c17.875,26.383,32.682,68.479,14.184,101.27c-0.065,0.176-11.175,22.431-30.824,44.773   c-20.984,23.86-39.561,42.44-57.729,52.742c9.676,12.317,13.705,29.934,7.845,44.5c-7.718,19.185-31.359,27.434-50.768,25.489   c0.007-0.021,0.013-0.052,0.021-0.074c-2.447-0.248-5.534-1.58-6.694-2.037c-5.067-1.995-10.086-4.19-14.54-7.329   c-11.196-7.889-18.288-22.305-16.328-36.575c0.168-1.226,0.395-2.461,0.665-3.699c-18.056,2.714-40.267,5.729-65.011,8.418   c4.9,11.265,5.765,24.415,0.781,35.501c-8.479,18.861-32.432,26.156-51.748,23.436c0.008-0.021,0.016-0.052,0.024-0.073   c-2.435-0.346-5.466-1.8-6.607-2.303c-4.983-2.197-9.91-4.591-14.235-7.905c-10.871-8.331-17.38-23.019-14.851-37.199   c0.281-1.577,0.652-3.167,1.104-4.756c-7.936,0.359-15.738,0.611-23.456,0.798l17.089-169.991c1.328,0.174,2.658,0.332,3.984,0.511   c37.244,5.048,74.945,12.157,109.967,26.187c23.294,9.332,47.304,22.216,62.792,42.489c-2.831-33.604-3.68-67.53-2.95-101.19   c0.776-35.757,2.921-72.566,12.539-107.189c3.752-13.504,9.404-29.607,18.976-41.355h0   c-61.614,12.202-126.124,18.682-189.393,22.219l3.538-35.191c0.156-54.231-11.38,5.566-11.38,5.566l-4.103,30.256   c-5.623,0.283-11.238,0.552-16.834,0.793c-40.228,1.732-81.036,1.444-120.833-5.324c-26.875-4.57-55.491-12.144-77.583-28.94   c7.492,22.98,12.668,47.047,15.7,70.887c4.735,37.228,5.675,82.63-19.168,113.409c5.473-0.288,10.952-0.505,16.428-0.702   c60.29-2.176,121.144-1.222,181.187,5.494l-23.377,172.374c-2.856,0.004-5.724,0.017-8.544-0.004   c2.47,12.609-1.979,26.035-10.676,34.818c-3.834,3.872-8.39,6.914-13.028,9.768c-1.062,0.654-3.867,2.506-6.232,3.18   c0.011,0.02,0.022,0.05,0.033,0.069c-18.766,5.322-43.489,1.352-54.454-16.181c-6.808-10.886-7.467-24.942-3.455-37.263   c-5.853-0.774-11.575-1.628-17.155-2.565c-12.863-2.161-25.022-5.053-36.487-8.522c-0.307,12.388-7.019,24.202-16.829,31.028   c-4.473,3.112-9.505,5.277-14.584,7.242c-1.163,0.45-4.258,1.763-6.706,1.996c0.007,0.022,0.013,0.053,0.02,0.074   c-19.421,1.828-43.012-6.562-50.614-25.793c-6.271-15.865-0.854-35.265,10.761-47.513c0.345-0.364,0.701-0.721,1.059-1.076   c-6.281-4.052-12.096-8.415-17.473-13.095c-7.74-6.736-15.721-17.866-20.611-31.045c-3.509-7.467-5.785-15.903-5.795-25.25   c-0.016-14.373,5.434-24.217,5.489-24.314l0.277-0.492l0.472,0.311c6.244,4.122,12.173,7.375,17.447,9.212   c5.302,1.118,9.85,0.555,13.6-1.714c5.513-3.337,8.581-9.855,10.255-16.845c1.301-8.619,0.9-17.746,0.712-22.516   c-1.059,3.369-6.2,9.15-8.903,10.35c-10.142,4.505-24.756-11.606-25.511-12.145l-1.646-1.177l2.01,0.226   c11.557,1.296,18.785-0.384,21.486-4.991c3.957-6.751-2.943-17.99-4.74-20.707c-4.004,5.308-8.274,10.258-13.208,10.287   c-9.732,0.075-17.724-12.399-18.048-12.835l-0.884-1.188l1.436,0.363c14.015,3.55,23.357,2.693,27.765-2.546   c4.494-5.342,2.77-14.115,1.241-19.103c-0.201,1.066-0.664,2.034-1.387,2.898c-6.495,7.757-32.129,4.333-33.216,4.183l-4.882-0.671   l4.913-0.375c12.046-0.919,19.941-4.302,23.464-10.054c1.966-3.209,2.166-6.593,1.899-9.119c-0.229,0.581-0.555,1.131-0.978,1.649   c-6.224,7.617-31.775,5.576-32.861,5.485l-4.956-0.414l4.933-0.632c8.129-1.042,12.817-3.455,13.934-7.173   c1.651-5.496-4.852-12.541-7.564-15.178c0.434,3.444-0.364,6.616-2.379,9.449c-7.433,10.448-28.739,12.901-29.642,13.001   l-0.542,0.06l-0.04-0.544c-0.463-6.309-2.392-10.202-5.733-11.572c-6.436-2.638-16.565,4.468-20.509,7.545   c9.354-1.789,15.601-1.238,18.582,1.644c2.102,2.031,1.692,4.441,1.674,4.542c-0.101,1.296-0.694,2.374-1.757,3.151   c-3.614,2.644-11.548,0.845-11.884,0.768c-5.337-1.095-10.107-0.291-14.165,2.395c-8.732,5.784-11.359,18.439-11.384,18.566   l-0.051-0.01c-4.15,33.633-21.629,33.921-22.369,33.919l-0.172-0.001l-0.138-0.102c-3.241-2.393-5.853-3.142-7.762-2.22   c-3.167,1.527-3.599,7.195-3.642,7.946c0.193,0.636,1.595,4.941,4.25,5.327c1.969,0.285,4.37-1.722,6.933-5.81l0.913,0.521   c-0.08,0.155-7.921,15.548-3.501,21.391c1.613,2.132,4.767,2.738,9.373,1.805l0.275-0.057l0.008,0.038   c1.143-0.1,8.465-1.499,11.072-20.969c0.005-0.207,0.262-6.287,3.522-8.064c1.512-0.822,3.374-0.59,5.536,0.697   c0.143,0.101,2.593,1.898,2.369,4.261c-0.149,1.57-1.426,2.946-3.797,4.093c-1.448,4.725-3.502,11.477-3.964,13.121   c0.131,1.478,0.684,3.651,1.502,3.796c0.373,0.069,1.819-0.207,4.738-6.552c0.164-0.356,4.072-8.707,8.902-10.135   c1.384-0.409,2.712-0.22,3.948,0.56c0.047,0.032,3.146,2.104,6.404,1.006c2.557-0.863,4.563-3.421,5.962-7.603   c0.005-0.031,1.731-7.708-3.63-12.58l-0.105-0.095l-0.043-0.135c-0.091-0.288-2.194-7.082,0.965-10.008   c1.881-1.74,5.155-1.69,9.731,0.154l0.189,0.13c0.237,0.256,26.613,26.929,18.103,66.838c-0.053,0.434-14.962,47.675-5.021,98.391   c3.705,18.9,7.819,37.259,17.798,54.682c3.763,7.582,10.613,17.33,15.245,23.736c4.623,6.394,28.369,29.68,74.515,42.85   c0.645,0.107,33.489,7.337,83.889,13.428l-33.259-83.627l11.438,1.871l37.691,83.031c-5.459-0.586-10.755-1.192-15.868-1.81   l32.255,81.103c0,0,12.509,24.977,17.054-6.164l-32.93-72.542c41.266,4.41,91.913,7.647,145.405,6.003l-41.327-81.495l12.228,0.874   l45.163,79.446c-5.379,0.264-10.734,0.473-16.064,0.637l43.485,85.752c0,0,15.573,25.111,17.373-8.128l-44.2-77.752   c4.234-0.211,8.481-0.451,12.738-0.729c41.97-2.867,81.539-10.094,117-19.706l-40.134-74.417l12.881,0.594l41.677,69.181   c-4.726,1.41-9.536,2.778-14.423,4.103l53.494,99.188c0,0,17.043,25.99,18.052-9.009l-56.573-93.908   c27.27-8.167,51.781-17.667,72.643-27.519c64.379-30.403,100.372-74.117,122.3-127.691c2.055-5.022,11.834-34.709,12.347-53.796   C829.433,360.964,828.549,356.921,826.009,340.851z M565.217,240.804c6.519-16.89,19.298-33.655,32.047-47.942   c2.556-2.864,8.264,0.2,5.684,3.092c-12.066,13.521-20.943,29.758-27.117,45.755c-13.118,33.987-12.659,70.27,7.064,102.924   c1.968,3.257-3.977,5.821-5.942,2.567C556.818,313.865,551.766,275.654,565.217,240.804z M489.872,240.169   c4.99-15.416,16.42-33.021,27.361-46.009c2.437-2.893,7.926,0.165,5.469,3.082c-30.483,36.185-38.971,88.657-7.662,126.906   c2.4,2.933-2.336,6.725-4.766,3.757C488.495,301.297,479.881,271.033,489.872,240.169z M312.803,194.327   c-18.021,24.823-27.84,64.731-14.69,97.512c1.207,3.008-2.051,5.73-3.258,2.722c-8.98-22.388-11.257-47.305-3.724-70.151   c3.977-12.063,12.135-24.456,18.935-33.823C311.807,188.188,314.548,191.923,312.803,194.327z M382.251,197.631   c-7.524,9.2-13.928,20.968-18.35,32.86c-9.039,24.31-9.236,50.326,3.18,72.302c1.66,2.938-1.704,6.871-3.383,3.899   c-13.848-24.51-18.439-44.432-7.156-74.778c4.319-11.616,11.656-24.973,22.696-38.472   C381.363,190.843,384.37,195.039,382.251,197.631z M432.932,316.741c-15.125-25.146-21.07-56.647-12-85.224   c4.637-14.611,15.268-28.537,24.223-40.494c2.052-2.739,6.246,0.242,4.163,3.023c-8.152,10.884-14.563,24.226-18.912,37.49   c-9.235,28.162-8.118,57.523,6.947,82.569C439.147,317.087,434.7,319.681,432.932,316.741z"></path>
        </g>
    </g>

</svg>