<svg height="100%" width="100%" viewBox="0 9.5 328.5 31.5" version="1.1" xmlns="http://www.w3.org/2000/svg" xmlns:xlink="http://www.w3.org/1999/xlink">

<g  featurekey="nameLeftFeature-0" transform="matrix(0.7777459380577822,0,0,0.7777459380577822,-1.0577344868843288,7.667051710171917)" fill="#d40000"><path d="M1.36 40 l0 -1.08 c1.32 -1.4 2.04 -3.32 2.04 -5.24 l0 -15.32 c0 -1.92 -0.72 -3.84 -2.04 -5.24 l0 -1.12 l8.52 0 l0 1.12 c-1.36 1.4 -2.04 3.32 -2.04 5.24 l0 19.8 l6.28 0 c2.12 0 4.16 -0.64 5.84 -1.88 l1.28 0 l0 3.72 l-19.88 0 z M22.84 40 l0 -1.08 c1.32 -1.4 2.04 -3.32 2.04 -5.24 l0 -15.32 c0 -1.92 -0.72 -3.84 -2.04 -5.24 l0 -1.12 l8.52 0 l0 1.12 c-1.36 1.4 -2.04 3.32 -2.04 5.24 l0 19.8 l6.28 0 c2.12 0 4.16 -0.64 5.84 -1.88 l1.28 0 l0 3.72 l-19.88 0 z M44.36 40 l0 -1.08 c1.32 -1.44 2 -3.32 2 -5.28 l0 -15.28 c0 -1.92 -0.68 -3.84 -2 -5.24 l0 -1.12 l19.8 0 l0.24 5.16 l-1.88 0 c-2.72 -2.16 -6 -3.28 -9.36 -3.28 l-2.4 0 l0 11.6 l6 0 l0 1.84 l-6 0 l0 10.8 l2.36 0 c3.24 0 6.36 -1.08 9.04 -3 l0.36 -0.28 l1.88 0 l-0.24 5.08 l0 0.08 l-19.8 0 z M74.64 40 l0 -1.08 c1.36 -1.4 2.08 -3.28 2.08 -5.24 l0 -19.76 l-3.68 0 c-1.88 0 -3.72 0.72 -4.96 2.12 l-2.24 0 l0 -4.04 l26.12 0 l0 4.04 l-2.16 0 c-1.28 -1.4 -3.2 -2.12 -5.04 -2.12 l-3.6 0 l0 19.76 c0 1.96 0.64 3.84 2 5.24 l0 1.08 l-8.52 0 z M93.60000000000001 40 l0 -1.08 l1.56 -1.68 c0.32 -0.36 0.52 -0.8 0.52 -1.28 l0 -19.84 c0 -0.48 -0.2 -0.96 -0.52 -1.28 l-1.56 -1.68 l0 -1.16 l12.52 0 c4.88 0 8.76 4.12 8.44 9.08 c-0.24 4.52 -4.28 8 -8.72 8 l-1 0 l3 0.56 l4.24 5.36 c0.96 1.2 2.16 2.32 3.44 3.24 l0.92 0.68 l0 1.08 l-7.52 0 l0 -1.08 c0.6 -0.76 0.6 -1.76 0 -2.4 l-6 -7.44 l-2.88 0 l0 7.56 l2.04 2.28 l0 1.08 l-8.48 0 z M100.04 27.72 l4.68 0 c4 0 7.24 -3.2 7.24 -7.2 s-3.24 -7.2 -7.24 -7.2 l-4.68 0 l0 14.4 z M118.60000000000002 40 l0 -1.08 c1.32 -1.44 2 -3.32 2 -5.28 l0 -15.28 c0 -1.92 -0.68 -3.84 -2 -5.24 l0 -1.12 l19.8 0 l0.24 5.16 l-1.88 0 c-2.72 -2.16 -6 -3.28 -9.36 -3.28 l-2.4 0 l0 11.6 l6 0 l0 1.84 l-6 0 l0 10.8 l2.36 0 c3.24 0 6.36 -1.08 9.04 -3 l0.36 -0.28 l1.88 0 l-0.24 5.08 l0 0.08 l-19.8 0 z M141.12 37.52 l0 -3.68 l2.2 0 l1.88 2.12 c1.68 1.88 3.88 2.24 6.52 2.28 c3.16 0 6.12 -1.04 6.12 -3.68 c0 -3.24 -5.6 -6.4 -8.8 -8.2 c-2.76 -1.56 -7.4 -3.76 -7.4 -7.08 c0 -6.16 7.76 -7.28 9.92 -7.28 c2.68 0 5.4 0.6 8.28 1.8 l0.08 3.64 l-2.28 0 l-1.32 -1.6 c-1.28 -1.52 -3.24 -2.4 -5.16 -2.4 c-3.4 0 -5.28 2.4 -5.28 3.76 c0 2.84 5.76 4.88 11.36 8.56 c3.16 2.08 4.6 4.56 4.6 6.88 c0 3.92 -3.96 7.48 -10 7.48 c-7.32 0 -10.72 -2.6 -10.72 -2.6 z"></path></g>

<g  featurekey="nameRightFeature-0" transform="matrix(0.8219167743616171,0,0,0.8219167743616171,130,7)" fill="#d40000"><path d="M10.24 37.4 l10.76 -19.36 c-0.84 0.04 -3.04 0.2 -5.64 0.88 c-2.28 0.6 -3.92 -6.84 -1 -7.16 c7.76 -0.8 16.4 -0.96 23.52 2.4 c4.84 2.32 6.84 8.84 -1 12.16 c5.48 3.68 4.4 9.6 -1.08 12.4 c-4.68 2.44 -11.64 2.16 -17.6 0.64 c-0.12 0.12 -0.16 0.28 -0.32 0.36 c-2.08 1.08 -8.28 -1.16 -7.64 -2.32 z M30.56 18 c-0.92 1.8 -2.12 3.6 -3.04 5.36 c10.88 2.4 13.16 -4.16 3.04 -5.36 z M22.04 33.04 c11.64 4 17.68 -2.44 11.12 -4.96 c-2.12 -0.84 -5.12 -1 -7.48 -1.4 z M65.68 5.799999999999997 l0 0 c-1.68 -1.44 2.12 -4.12 3.2 -0.76 c0.72 2.32 0.64 5.96 -0.4 4 c-1.2 -2.36 -1.92 -2.44 -2.8 -3.24 z M75.24000000000001 18.4 l0 0 c6.52 -10.08 -21.16 -7.4 -22.44 -5.84 c-0.2 0.4 -2.44 7.88 0.48 7.28 c1.44 -0.28 4.76 -1.36 6.28 -1.6 l-9.44 8.92 l-3.04 -0.04 c-0.08 0.04 -0.16 1.52 0.44 2.52 l-6.6 6.4 c-1.08 1.04 6.16 5.56 8.12 3.32 l7.64 -8.88 l3.08 0 c-2.44 5.16 -3.16 9.96 3.6 9.48 c4.8 -0.32 6.08 -4.52 5.36 -3.92 c-0.52 0.4 -3.84 2.24 -3.36 0.28 c0.76 -2.8 8.8 -16.28 9.88 -17.92 z M59.56 27.16 l6.64 -7.6 c-0.8 1.44 -2.84 4.4 -4.68 7.6 l-1.96 0 z M83.96 31.880000000000003 l-4.52 7.56 c-1.32 2.6 -8.36 -1.2 -7.64 -2.52 l10.2 -18.44 c-0.84 0.04 -3.04 0.16 -5.64 0.88 c-2.28 0.6 -3.92 -6.88 -1 -7.16 c6.6 -0.68 18.72 -1.8 24.44 2.08 c8 5.4 1.56 16.4 -10.24 16.4 c0.24 1.12 0.92 5.08 2.68 6 c3.08 1.56 12.16 -3.68 5.36 0.88 c-6.76 4.52 -11.4 4.36 -13.64 -5.68 z M91.64 18.44 l-4.08 7.48 c7.84 1.72 17.04 -5.48 4.08 -7.48 z M102.08 37.4 l10.76 -19.36 c-0.84 0.04 -3.04 0.2 -5.64 0.88 c-2.28 0.6 -3.92 -6.84 -1 -7.16 c7.76 -0.8 16.4 -0.96 23.52 2.4 c4.84 2.32 6.84 8.84 -1 12.16 c5.48 3.68 4.4 9.6 -1.08 12.4 c-4.68 2.44 -11.64 2.16 -17.6 0.64 c-0.12 0.12 -0.16 0.28 -0.32 0.36 c-2.08 1.08 -8.28 -1.16 -7.64 -2.32 z M122.4 18 c-0.92 1.8 -2.12 3.6 -3.04 5.36 c10.88 2.4 13.16 -4.16 3.04 -5.36 z M113.88 33.04 c11.64 4 17.68 -2.44 11.12 -4.96 c-2.12 -0.84 -5.12 -1 -7.48 -1.4 z M167.08 18.4 c-1.08 1.64 -9.12 15.12 -9.88 17.92 c-0.52 1.96 2.84 0.12 3.36 -0.28 c0.72 -0.6 -0.56 3.6 -5.36 3.92 c-6.76 0.48 -6.04 -4.32 -3.6 -9.48 l-3.12 0 l-7.64 8.88 c-1.92 2.24 -9.16 -2.28 -8.08 -3.32 l6.56 -6.4 c-0.56 -1 -0.48 -2.48 -0.4 -2.52 l3.04 0.04 l9.44 -8.92 c-1.52 0.24 -4.84 1.32 -6.28 1.6 c-2.92 0.6 -0.72 -6.88 -0.48 -7.28 c1.28 -1.56 28.96 -4.24 22.44 5.84 z M151.4 27.16 l1.96 0 c1.84 -3.2 3.88 -6.16 4.68 -7.6 z M175.8 31.880000000000003 l-4.52 7.56 c-1.32 2.6 -8.36 -1.2 -7.64 -2.52 l10.2 -18.44 c-0.84 0.04 -3.04 0.16 -5.64 0.88 c-2.28 0.6 -3.92 -6.88 -1 -7.16 c6.6 -0.68 18.72 -1.8 24.44 2.08 c8 5.4 1.56 16.4 -10.24 16.4 c0.24 1.12 0.92 5.08 2.68 6 c3.08 1.56 12.16 -3.68 5.36 0.88 c-6.76 4.52 -11.4 4.36 -13.64 -5.68 z M183.48000000000002 18.44 l-4.08 7.48 c7.84 1.72 17.04 -5.48 4.08 -7.48 z M201.88 18.88 c-0.8 0 -2.76 0.2 -5.4 0.92 c-2.32 0.6 -3.96 -7.28 -1.04 -7.6 c9.04 -0.92 21.72 -0.24 28.16 0.36 c0.12 0.92 -1.04 3.56 -2.12 5.24 c-1.28 2.04 -3.52 0.68 -9.84 1.04 c-0.84 1.76 -3.08 4.72 -3.72 6.2 l3.56 -0.76 c1.52 -0.32 -0.4 2.96 -1.4 3.16 l-3.56 0.76 c-0.12 0.36 -4.48 6.72 -2.76 7.72 c1.4 0.8 4.32 0 9.76 -1.88 c0.28 -0.08 1.04 2.08 -1.12 2.96 c-8.2 3.32 -12.8 3.6 -15.28 2.24 c-3.76 -2.04 -2.88 -6.24 -1.32 -9.24 c2.16 -4.28 6.08 -11.12 6.08 -11.12 z M237.88000000000002 24.119999999999997 c-0.64 1.04 -5.4 -2.48 -4.8 -3.48 c0.92 -1.44 2.64 -3.16 3.28 -4.2 c0.88 -1.4 -0.8 -1.12 -1.64 -0.56 c-1.36 0.92 -3.12 3.24 -5.12 7.28 c-2.04 4.16 6.72 4.88 8.36 9.04 c0.4 1.08 0.36 2.36 -0.44 3.96 c-4.88 10.04 -20.64 3.16 -20.56 0.36 c0.08 -3.32 4 -7.16 4.92 -6.04 c6.48 7.48 15.28 2.84 10.04 0 c-7 -3.76 -14.08 -6.12 -6.28 -16.72 c1.8 -2.52 7.52 -4.8 12.6 -2.08 c6.36 3.44 2.16 8.36 -0.36 12.44 z"></path></g></svg>