<svg height="100%" width="100%" viewBox="-0.5 5.5 40 40" version="1.1" xmlns="http://www.w3.org/2000/svg" xmlns:xlink="http://www.w3.org/1999/xlink">

<g  featurekey="nameLeftFeature-0" transform="matrix(0.7777459380577822,0,0,0.7777459380577822,-1.0577344868843288,0)" fill="#d32f2f">
<path d="M1.36 40 l0 -1.08 c1.32 -1.4 2.04 -3.32 2.04 -5.24 l0 -15.32 c0 -1.92 -0.72 -3.84 -2.04 -5.24 l0 -1.12 l8.52 0 l0 1.12 c-1.36 1.4 -2.04 3.32 -2.04 5.24 l0 19.8 l6.28 0 c2.12 0 4.16 -0.64 5.84 -1.88 l1.28 0 l0 3.72"></path></g>

<g  featurekey="nameRightFeature-0" transform="matrix(0.8219167743616171,0,0,0.8219167743616171,4,7)" fill="#d32f2f">
<path d="M10.24 37.4 l10.76 -19.36 c-0.84 0.04 -3.04 0.2 -5.64 0.88 c-2.28 0.6 -3.92 -6.84 -1 -7.16 c7.76 -0.8 16.4 -0.96 23.52 2.4 c4.84 2.32 6.84 8.84 -1 12.16 c5.48 3.68 4.4 9.6 -1.08 12.4 c-4.68 2.44 -11.64 2.16 -17.6 0.64 c-0.12 0.12 -0.16 0.28 -0.32 0.36 c-2.08 1.08 -8.28 -1.16 -7.64 -2.32 z M30.56 18 c-0.92 1.8 -2.12 3.6 -3.04 5.36 c10.88 2.4 13.16 -4.16 3.04 -5.36 z M22.04 33.04 c11.64 4 17.68 -2.44 11.12 -4.96 c-2.12 -0.84 -5.12 -1 -7.48 -1.4 z M65.68 5.799999999999997 l0 0"></path></g></svg>